<svg xmlns="http://www.w3.org/2000/svg" viewBox="0 0 32 32" width="32" height="32" role="img" aria-labelledby="fav-title">
  <title id="fav-title">FrotaViva</title>

  <rect width="32" height="32" rx="6" fill="#1B3A4B"/>

  <g transform="translate(4, 1)">
    <path d="M12 2 C7 2 3 6 3 10.5 C3 16 12 28 12 28 C12 28 21 16 21 10.5 C21 6 17 2 12 2Z" fill="none" stroke="#ffffff" stroke-width="1.2" opacity="0.9"/>
    <circle cx="12" cy="9.5" r="6" fill="none" stroke="#2D6A4F" stroke-width="1.5"/>

    <g transform="translate(7.5, 6.5)">
      <path d="M0.5 5 L0.5 2.5 L1.5 1.5 L3 1.5 L3 3.5" fill="none" stroke="#ffffff" stroke-width="0.9" stroke-linecap="round" stroke-linejoin="round"/>
      <path d="M3 3.5 L3 1.5 L8 1.5 L8.5 0.5 M3 3.5 L8.5 3.5 L8.5 0.5" fill="none" stroke="#ffffff" stroke-width="0.8" stroke-linecap="round" stroke-linejoin="round"/>
      <line x1="0.5" y1="4.2" x2="8.5" y2="4.2" stroke="#ffffff" stroke-width="0.8" stroke-linecap="round"/>
      <circle cx="2" cy="5.2" r="0.9" fill="#2D6A4F"/>
      <circle cx="6.5" cy="5.2" r="0.9" fill="#2D6A4F"/>
      <circle cx="8" cy="5.2" r="0.9" fill="#2D6A4F"/>
    </g>
  </g>
</svg>