<svg xmlns="http://www.w3.org/2000/svg" viewBox="0 0 32 32" width="32" height="32" role="img" aria-labelledby="fav-title">
  <title id="fav-title">Siga Bem</title>

  <rect width="32" height="32" rx="6" fill="#1B3A4B"/>

  <path d="M16 4 C11 4 7 8 7 13 C7 19 16 28 16 28 C16 28 25 19 25 13 C25 8 21 4 16 4Z" fill="#243F50" stroke="#ffffff" stroke-width="1.5"/>
  <circle cx="16" cy="12" r="5.5" fill="none" stroke="#2D6A4F" stroke-width="1.8"/>

  <g transform="translate(12.5, 10)">
    <path d="M0.5 3.5 L0.5 1.5 L1.2 0.8 L2.2 0.8 L2.2 1.8 L6 1.8 L6.5 0.5 L6.5 3.5" fill="none" stroke="#ffffff" stroke-width="0.8" stroke-linecap="round" stroke-linejoin="round"/>
    <line x1="2.2" y1="1.3" x2="6.5" y2="1.3" stroke="#ffffff" stroke-width="0.5" opacity="0.5"/>
    <circle cx="1.5" cy="4" r="0.8" fill="#2D6A4F"/>
    <circle cx="5.5" cy="4" r="0.8" fill="#2D6A4F"/>
  </g>
</svg>