<svg xmlns="http://www.w3.org/2000/svg" viewBox="0 0 320 120" width="320" height="120" role="img" aria-labelledby="full-title">
  <title id="full-title">Siga Bem - Gestao de Frotas de Cegonha</title>

  <g transform="translate(40, 2)">
    <path d="M50 6 C30 6 14 22 14 42 C14 66 50 110 50 110 C50 110 86 66 86 42 C86 22 70 6 50 6Z" fill="#1B3A4B"/>
    <circle cx="50" cy="38" r="26" fill="none" stroke="#2D6A4F" stroke-width="3"/>

    <g transform="translate(30, 26)">
      <path d="M1 22 L1 9 L5 4 L12 4 L12 12" fill="none" stroke="#ffffff" stroke-width="2.2" stroke-linecap="round" stroke-linejoin="round"/>
      <path d="M12 12 L12 4 L36 4 L39 1 M12 12 L39 12 L39 1" fill="none" stroke="#ffffff" stroke-width="1.8" stroke-linecap="round" stroke-linejoin="round"/>
      <line x1="12" y1="8" x2="39" y2="8" stroke="#ffffff" stroke-width="1.2" stroke-linecap="round" opacity="0.7"/>
      <path d="M14 7 L15.5 5.2 L20 5.2 L21 7" fill="none" stroke="#ffffff" stroke-width="1.3" stroke-linecap="round" stroke-linejoin="round" opacity="0.8"/>
      <path d="M23 7 L24.5 5.2 L29 5.2 L30 7" fill="none" stroke="#ffffff" stroke-width="1.3" stroke-linecap="round" stroke-linejoin="round" opacity="0.8"/>
      <path d="M32 6 L33 5 L37 5 L37.5 6" fill="none" stroke="#ffffff" stroke-width="1.2" stroke-linecap="round" stroke-linejoin="round" opacity="0.65"/>
      <rect x="14" y="9" width="8" height="2.2" rx="0.8" fill="none" stroke="#ffffff" stroke-width="1.1" opacity="0.65"/>
      <rect x="25" y="9" width="8" height="2.2" rx="0.8" fill="none" stroke="#ffffff" stroke-width="1.1" opacity="0.65"/>
      <line x1="1" y1="16.5" x2="39" y2="16.5" stroke="#ffffff" stroke-width="1.8" stroke-linecap="round"/>
      <circle cx="8" cy="19.5" r="3" fill="#2D6A4F"/>
      <circle cx="8" cy="19.5" r="1" fill="#1B3A4B"/>
      <circle cx="29" cy="19.5" r="3" fill="#2D6A4F"/>
      <circle cx="29" cy="19.5" r="1" fill="#1B3A4B"/>
      <circle cx="36" cy="19.5" r="3" fill="#2D6A4F"/>
      <circle cx="36" cy="19.5" r="1" fill="#1B3A4B"/>
    </g>
  </g>

  <text x="152" y="52" font-family="Inter, -apple-system, BlinkMacSystemFont, 'Segoe UI', Helvetica, Arial, sans-serif" font-weight="800" font-size="36" fill="#1B3A4B" letter-spacing="-0.5">Siga</text>
  <text x="152" y="86" font-family="Inter, -apple-system, BlinkMacSystemFont, 'Segoe UI', Helvetica, Arial, sans-serif" font-weight="800" font-size="36" fill="#2D6A8F" letter-spacing="-0.5">Bem</text>
  <circle cx="247" cy="80" r="4" fill="#2D6A4F"/>
  <text x="152" y="104" font-family="Inter, -apple-system, BlinkMacSystemFont, 'Segoe UI', Helvetica, Arial, sans-serif" font-weight="600" font-size="9" fill="#4A6274" letter-spacing="2">SUA FROTA NO CONTROLE</text>
</svg>