<svg xmlns="http://www.w3.org/2000/svg" viewBox="0 0 360 80" width="360" height="80" role="img" aria-labelledby="horiz-title">
  <title id="horiz-title">Siga Bem - Sua frota no controle</title>

  <g transform="translate(6, 2)">
    <path d="M30 4 C18 4 8 14 8 26 C8 40 30 70 30 70 C30 70 52 40 52 26 C52 14 42 4 30 4Z" fill="#1B3A4B"/>
    <circle cx="30" cy="24" r="16" fill="none" stroke="#2D6A4F" stroke-width="2.5"/>

    <g transform="translate(19, 17)">
      <path d="M1 12 L1 5 L3 3 L6.5 3 L6.5 7" fill="none" stroke="#ffffff" stroke-width="1.5" stroke-linecap="round" stroke-linejoin="round"/>
      <path d="M6.5 7 L6.5 3 L19.5 3 L21 1 M6.5 7 L21 7 L21 1" fill="none" stroke="#ffffff" stroke-width="1.3" stroke-linecap="round" stroke-linejoin="round"/>
      <line x1="6.5" y1="5" x2="21" y2="5" stroke="#ffffff" stroke-width="1" stroke-linecap="round" opacity="0.6"/>
      <path d="M8 4.2 L9.2 3.3 L13 3.3 L13.8 4.2" fill="none" stroke="#ffffff" stroke-width="1" stroke-linecap="round" stroke-linejoin="round" opacity="0.7"/>
      <path d="M15 4.2 L15.8 3.3 L19 3.3 L19.5 4.2" fill="none" stroke="#ffffff" stroke-width="1" stroke-linecap="round" stroke-linejoin="round" opacity="0.65"/>
      <line x1="1" y1="9.5" x2="21" y2="9.5" stroke="#ffffff" stroke-width="1.3" stroke-linecap="round"/>
      <circle cx="4.5" cy="11.5" r="2" fill="#2D6A4F"/>
      <circle cx="18" cy="11.5" r="2" fill="#2D6A4F"/>
    </g>
  </g>

  <text x="72" y="34" font-family="Inter, -apple-system, BlinkMacSystemFont, 'Segoe UI', Helvetica, Arial, sans-serif" font-weight="800" font-size="28" fill="#1B3A4B" letter-spacing="-0.5">Siga</text>
  <text x="72" y="60" font-family="Inter, -apple-system, BlinkMacSystemFont, 'Segoe UI', Helvetica, Arial, sans-serif" font-weight="800" font-size="28" fill="#2D6A8F" letter-spacing="-0.5">Bem</text>
  <circle cx="144" cy="55" r="3.5" fill="#2D6A4F"/>
  <text x="72" y="74" font-family="Inter, -apple-system, BlinkMacSystemFont, 'Segoe UI', Helvetica, Arial, sans-serif" font-weight="600" font-size="8" fill="#4A6274" letter-spacing="2">SUA FROTA NO CONTROLE</text>
</svg>